<?xml version="1.0" standalone="no"?>
<!DOCTYPE svg PUBLIC "-//W3C//DTD SVG 20010904//EN"
 "http://www.w3.org/TR/2001/REC-SVG-20010904/DTD/svg10.dtd">
<svg version="1.0" xmlns="http://www.w3.org/2000/svg"
 width="80px" height="80px" viewBox="0 0 500.000000 456.000000"
 preserveAspectRatio="xMidYMid meet">

<g transform="translate(0.000000,456.000000) scale(0.100000,-0.100000)"
fill="#000000" stroke="none">
<path d="M2150 4244 c-884 -135 -1530 -885 -1530 -1778 0 -98 21 -282 43 -373
l12 -52 120 91 c426 319 877 519 1320 583 156 23 438 23 590 0 452 -66 889
-260 1320 -583 l120 -91 12 52 c22 91 43 275 43 373 0 737 -444 1394 -1128
1670 -114 46 -282 90 -412 109 -131 18 -384 18 -510 -1z"/>
<path d="M2220 2370 c-350 -43 -710 -184 -1053 -413 -152 -102 -345 -250 -353
-271 -7 -17 67 -147 141 -251 222 -310 537 -542 900 -660 72 -24 149 -46 173
-50 l42 -7 0 -359 0 -359 340 0 340 0 0 359 0 359 43 7 c107 19 322 97 445
162 302 161 544 394 719 691 30 51 52 99 50 106 -3 8 -44 44 -91 82 -409 325
-798 515 -1196 585 -132 23 -385 33 -500 19z"/>
</g>
</svg>
